<?xml version="1.0" encoding="utf-8"?>
<!-- Generator: Adobe Illustrator 26.0.3, SVG Export Plug-In . SVG Version: 6.00 Build 0)  -->
<svg version="1.1" id="Layer_1" xmlns="http://www.w3.org/2000/svg" xmlns:xlink="http://www.w3.org/1999/xlink" x="0px" y="0px"
	 viewBox="0 0 816 1056" style="enable-background:new 0 0 816 1056;" xml:space="preserve">
<style type="text/css">
	.st0{fill:#969797;}
	.st1{font-family:'ScalaSansOffc';}
	.st2{font-size:7.6667px;}
	.st3{fill:#C6C6C7;}
	.st4{font-size:5.9999px;}
	.st5{font-size:6.0003px;}
	.st6{font-size:6px;}
	.st7{font-size:6.0004px;}
</style>
<text transform="matrix(0 -1 1 0 27.7373 610.8594)" class="st0 st1 st2">S</text>
<text transform="matrix(0 -1 1 0 27.7373 606.7656)" class="st0 st1 st2">P</text>
<text transform="matrix(0 -1 1 0 27.7373 602.5039)" class="st0 st1 st2">E</text>
<text transform="matrix(0 -1 1 0 27.7373 598.3711)" class="st0 st1 st2">L</text>
<text transform="matrix(0 -1 1 0 27.7373 594.5762)" class="st0 st1 st2">L</text>
<text transform="matrix(0 -1 1 0 27.7373 590.7812)" class="st0 st1 st2">S</text>
<text transform="matrix(0 -1 1 0 27.7373 586.6875)" class="st0 st1 st2"> </text>
<text transform="matrix(0 -1 1 0 27.7373 584.7715)" class="st0 st1 st2">K</text>
<text transform="matrix(0 -1 1 0 27.7373 580.3926)" class="st0 st1 st2">N</text>
<text transform="matrix(0 -1 1 0 27.7373 574.5742)" class="st0 st1 st2">O</text>
<text transform="matrix(0 -1 1 0 27.7373 568.7637)" class="st0 st1 st2">W</text>
<text transform="matrix(0 -1 1 0 27.7373 562.1387)" class="st0 st1 st2">N</text>
<text transform="matrix(-3.977812e-02 -0.9992 0.9992 -3.977812e-02 40.5636 471.5928)" class="st3 st1 st4">P</text>
<text transform="matrix(0.4401 -0.898 0.898 0.4401 40.4078 468.7155)" class="st3 st1 st5">R</text>
<text transform="matrix(0.7559 -0.6547 0.6547 0.7559 41.709 465.9761)" class="st3 st1 st6">E</text>
<text transform="matrix(0.947 -0.3212 0.3212 0.947 43.7905 464.1854)" class="st3 st1 st6">P</text>
<text transform="matrix(0.988 0.1547 -0.1547 0.988 46.3547 463.2219)" class="st3 st1 st5">A</text>
<text transform="matrix(0.8491 0.5283 -0.5283 0.8491 49.3926 463.6603)" class="st3 st1 st5">R</text>
<text transform="matrix(0.5776 0.8163 -0.8163 0.5776 51.8949 465.325)" class="st3 st1 st7">E</text>
<text transform="matrix(3.977812e-02 0.9992 -0.9992 3.977812e-02 53.6502 467.6044)" class="st3 st1 st4">D</text>
<text transform="matrix(1 0 0 1 41.8076 398.1836)" class="st0 st1 st2">S</text>
<text transform="matrix(1 0 0 1 45.9019 398.1836)" class="st0 st1 st2">P</text>
<text transform="matrix(1 0 0 1 50.1646 398.1836)" class="st0 st1 st2">E</text>
<text transform="matrix(1 0 0 1 54.2969 398.1836)" class="st0 st1 st2">L</text>
<text transform="matrix(1 0 0 1 58.0918 398.1836)" class="st0 st1 st2">L</text>
<text transform="matrix(1 0 0 1 41.6851 405.5215)" class="st0 st1 st2">L</text>
<text transform="matrix(1 0 0 1 45.4805 405.5215)" class="st0 st1 st2">E</text>
<text transform="matrix(1 0 0 1 49.6123 405.5215)" class="st0 st1 st2">V</text>
<text transform="matrix(1 0 0 1 54.082 405.5215)" class="st0 st1 st2">E</text>
<text transform="matrix(1 0 0 1 58.2148 405.5215)" class="st0 st1 st2">L</text>
<text transform="matrix(1 0 0 1 170.2783 411.7695)" class="st0 st1 st2">S</text>
<text transform="matrix(1 0 0 1 174.3721 411.7695)" class="st0 st1 st2">L</text>
<text transform="matrix(1 0 0 1 178.167 411.7695)" class="st0 st1 st2">O</text>
<text transform="matrix(1 0 0 1 183.9404 411.7695)" class="st0 st1 st2">T</text>
<text transform="matrix(1 0 0 1 188.0723 411.7695)" class="st0 st1 st2">S</text>
<text transform="matrix(1 0 0 1 192.1665 411.7695)" class="st0 st1 st2"> </text>
<text transform="matrix(1 0 0 1 194.083 411.7695)" class="st0 st1 st2">E</text>
<text transform="matrix(1 0 0 1 198.2158 411.7695)" class="st0 st1 st2">X</text>
<text transform="matrix(1 0 0 1 202.6006 411.7695)" class="st0 st1 st2">P</text>
<text transform="matrix(1 0 0 1 206.8633 411.7695)" class="st0 st1 st2">E</text>
<text transform="matrix(1 0 0 1 210.9961 411.7695)" class="st0 st1 st2">N</text>
<text transform="matrix(1 0 0 1 216.8149 411.7695)" class="st0 st1 st2">D</text>
<text transform="matrix(1 0 0 1 222.2656 411.7695)" class="st0 st1 st2">E</text>
<text transform="matrix(1 0 0 1 226.3984 411.7695)" class="st0 st1 st2">D</text>
<text transform="matrix(1 0 0 1 67.7671 411.7695)" class="st0 st1 st2">S</text>
<text transform="matrix(1 0 0 1 71.8613 411.7695)" class="st0 st1 st2">L</text>
<text transform="matrix(1 0 0 1 75.6562 411.7695)" class="st0 st1 st2">O</text>
<text transform="matrix(1 0 0 1 81.4292 411.7695)" class="st0 st1 st2">T</text>
<text transform="matrix(1 0 0 1 85.5615 411.7695)" class="st0 st1 st2">S</text>
<text transform="matrix(1 0 0 1 89.6553 411.7695)" class="st0 st1 st2"> </text>
<text transform="matrix(1 0 0 1 91.4189 411.7695)" class="st0 st1 st2">T</text>
<text transform="matrix(1 0 0 1 95.4746 411.7695)" class="st0 st1 st2">O</text>
<text transform="matrix(1 0 0 1 101.2476 411.7695)" class="st0 st1 st2">T</text>
<text transform="matrix(1 0 0 1 104.9966 411.7695)" class="st0 st1 st2">A</text>
<text transform="matrix(1 0 0 1 109.5581 411.7695)" class="st0 st1 st2">L</text>
</svg>
