<?xml version="1.0" encoding="utf-8"?>
<!-- Generator: Adobe Illustrator 26.0.3, SVG Export Plug-In . SVG Version: 6.00 Build 0)  -->
<svg version="1.1" id="Layer_1" xmlns="http://www.w3.org/2000/svg" xmlns:xlink="http://www.w3.org/1999/xlink" x="0px" y="0px"
	 viewBox="0 0 612 792" style="enable-background:new 0 0 612 792;" xml:space="preserve">
<style type="text/css">
	.st0{fill:#969797;}
	.st1{font-family:'ScalaSansOffc';}
	.st2{font-size:7.6667px;}
</style>
<g>
	<g>
		<text transform="matrix(1 0 0 1 80.5381 406.6417)" class="st0 st1 st2">S</text>
		<text transform="matrix(1 0 0 1 84.6318 406.6417)" class="st0 st1 st2">P</text>
		<text transform="matrix(1 0 0 1 88.8936 406.6417)" class="st0 st1 st2">E</text>
		<text transform="matrix(1 0 0 1 93.0264 406.6417)" class="st0 st1 st2">L</text>
		<text transform="matrix(1 0 0 1 96.8213 406.6417)" class="st0 st1 st2">L</text>
		<text transform="matrix(1 0 0 1 100.6162 406.6417)" class="st0 st1 st2">S</text>
	</g>
	<g>
		<text transform="matrix(1 0 0 1 78.3975 413.0916)" class="st0 st1 st2">K</text>
		<text transform="matrix(1 0 0 1 82.7764 413.0916)" class="st0 st1 st2">N</text>
		<text transform="matrix(1 0 0 1 88.5947 413.0916)" class="st0 st1 st2">O</text>
		<text transform="matrix(1 0 0 1 94.4053 413.0916)" class="st0 st1 st2">W</text>
		<text transform="matrix(1 0 0 1 101.0303 413.0916)" class="st0 st1 st2">N</text>
	</g>
	<g>
		<g>
			<text transform="matrix(1 0 0 1 225.1265 406.6414)" class="st0 st1 st2">S</text>
			<text transform="matrix(1 0 0 1 229.2203 406.6414)" class="st0 st1 st2">L</text>
			<text transform="matrix(1 0 0 1 233.0152 406.6414)" class="st0 st1 st2">O</text>
			<text transform="matrix(1 0 0 1 238.7886 406.6414)" class="st0 st1 st2">T</text>
			<text transform="matrix(1 0 0 1 242.9205 406.6414)" class="st0 st1 st2">S</text>
		</g>
		<g>
			<text transform="matrix(1 0 0 1 217.1871 413.0916)" class="st0 st1 st2">E</text>
			<text transform="matrix(1 0 0 1 221.3199 413.0916)" class="st0 st1 st2">X</text>
			<text transform="matrix(1 0 0 1 225.7046 413.0916)" class="st0 st1 st2">P</text>
			<text transform="matrix(1 0 0 1 229.9673 413.0916)" class="st0 st1 st2">E</text>
			<text transform="matrix(1 0 0 1 234.1001 413.0916)" class="st0 st1 st2">N</text>
			<text transform="matrix(1 0 0 1 239.919 413.0916)" class="st0 st1 st2">D</text>
			<text transform="matrix(1 0 0 1 245.3697 413.0916)" class="st0 st1 st2">E</text>
			<text transform="matrix(1 0 0 1 249.5025 413.0916)" class="st0 st1 st2">D</text>
		</g>
	</g>
	<g>
		<text transform="matrix(1 0 0 1 152.1112 406.6415)" class="st0 st1 st2">S</text>
		<text transform="matrix(1 0 0 1 156.2054 406.6415)" class="st0 st1 st2">L</text>
		<text transform="matrix(1 0 0 1 160.0004 406.6415)" class="st0 st1 st2">O</text>
		<text transform="matrix(1 0 0 1 165.7733 406.6415)" class="st0 st1 st2">T</text>
		<text transform="matrix(1 0 0 1 169.9056 406.6415)" class="st0 st1 st2">S</text>
	</g>
	<g>
		<text transform="matrix(1 0 0 1 152.0882 413.0916)" class="st0 st1 st2">T</text>
		<text transform="matrix(1 0 0 1 156.1438 413.0916)" class="st0 st1 st2">O</text>
		<text transform="matrix(1 0 0 1 161.9168 413.0916)" class="st0 st1 st2">T</text>
		<text transform="matrix(1 0 0 1 165.6658 413.0916)" class="st0 st1 st2">A</text>
		<text transform="matrix(1 0 0 1 170.2273 413.0916)" class="st0 st1 st2">L</text>
	</g>
</g>
</svg>
