<?xml version="1.0" encoding="utf-8"?>
<!-- Generator: Adobe Illustrator 26.0.3, SVG Export Plug-In . SVG Version: 6.00 Build 0)  -->
<svg version="1.1" id="Layer_1" xmlns="http://www.w3.org/2000/svg" xmlns:xlink="http://www.w3.org/1999/xlink" x="0px" y="0px"
	 viewBox="0 0 816 1056" style="enable-background:new 0 0 816 1056;" xml:space="preserve">
<style type="text/css">
	.st0{fill:#969797;}
	.st1{font-family:'ScalaSansOffc';}
	.st2{font-size:7.6667px;}
	.st3{fill:#010101;}
	.st4{fill:#C6C6C7;}
	.st5{font-size:5.9999px;}
	.st6{font-size:6.0006px;}
	.st7{font-size:6px;}
	.st8{font-size:6.0005px;}
	.st9{font-size:6.0004px;}
	.st10{fill:#FFFFFF;}
</style>
<g>
	<g>
		<text transform="matrix(1 0 0 1 224.8492 405.5865)" class="st0 st1 st2">S</text>
		<text transform="matrix(1 0 0 1 228.9429 405.5865)" class="st0 st1 st2">P</text>
		<text transform="matrix(1 0 0 1 233.2046 405.5865)" class="st0 st1 st2">E</text>
		<text transform="matrix(1 0 0 1 237.3375 405.5865)" class="st0 st1 st2">L</text>
		<text transform="matrix(1 0 0 1 241.1324 405.5865)" class="st0 st1 st2">L</text>
		<text transform="matrix(1 0 0 1 244.9273 405.5865)" class="st0 st1 st2">S</text>
	</g>
	<g>
		<text transform="matrix(1 0 0 1 222.7086 412.0364)" class="st0 st1 st2">K</text>
		<text transform="matrix(1 0 0 1 227.0875 412.0364)" class="st0 st1 st2">N</text>
		<text transform="matrix(1 0 0 1 232.9058 412.0364)" class="st0 st1 st2">O</text>
		<text transform="matrix(1 0 0 1 238.7164 412.0364)" class="st0 st1 st2">W</text>
		<text transform="matrix(1 0 0 1 245.3414 412.0364)" class="st0 st1 st2">N</text>
	</g>
</g>
<g>
	<g>
		<text transform="matrix(1 0 0 1 82.3366 405.5863)" class="st0 st1 st2">S</text>
		<text transform="matrix(1 0 0 1 86.4304 405.5863)" class="st0 st1 st2">L</text>
		<text transform="matrix(1 0 0 1 90.2253 405.5863)" class="st0 st1 st2">O</text>
		<text transform="matrix(1 0 0 1 95.9987 405.5863)" class="st0 st1 st2">T</text>
		<text transform="matrix(1 0 0 1 100.1306 405.5863)" class="st0 st1 st2">S</text>
	</g>
	<g>
		<text transform="matrix(1 0 0 1 74.3972 412.0364)" class="st0 st1 st2">E</text>
		<text transform="matrix(1 0 0 1 78.53 412.0364)" class="st0 st1 st2">X</text>
		<text transform="matrix(1 0 0 1 82.9147 412.0364)" class="st0 st1 st2">P</text>
		<text transform="matrix(1 0 0 1 87.1774 412.0364)" class="st0 st1 st2">E</text>
		<text transform="matrix(1 0 0 1 91.3102 412.0364)" class="st0 st1 st2">N</text>
		<text transform="matrix(1 0 0 1 97.1291 412.0364)" class="st0 st1 st2">D</text>
		<text transform="matrix(1 0 0 1 102.5798 412.0364)" class="st0 st1 st2">E</text>
		<text transform="matrix(1 0 0 1 106.7126 412.0364)" class="st0 st1 st2">D</text>
	</g>
</g>
<g>
	<g>
		<text transform="matrix(1 0 0 1 152.749 405.5864)" class="st0 st1 st2">S</text>
		<text transform="matrix(1 0 0 1 156.8432 405.5864)" class="st0 st1 st2">L</text>
		<text transform="matrix(1 0 0 1 160.6382 405.5864)" class="st0 st1 st2">O</text>
		<text transform="matrix(1 0 0 1 166.4111 405.5864)" class="st0 st1 st2">T</text>
		<text transform="matrix(1 0 0 1 170.5434 405.5864)" class="st0 st1 st2">S</text>
	</g>
	<g>
		<text transform="matrix(1 0 0 1 152.726 412.0364)" class="st0 st1 st2">T</text>
		<text transform="matrix(1 0 0 1 156.7816 412.0364)" class="st0 st1 st2">O</text>
		<text transform="matrix(1 0 0 1 162.5546 412.0364)" class="st0 st1 st2">T</text>
		<text transform="matrix(1 0 0 1 166.3036 412.0364)" class="st0 st1 st2">A</text>
		<text transform="matrix(1 0 0 1 170.8651 412.0364)" class="st0 st1 st2">L</text>
	</g>
</g>
<path class="st3" d="M715.8,194.7h-10l-2.2-2.7h-2.3l7.2,9c-0.2,0.5-0.5,1-0.7,1.5l-8.7-10.5h-1l9.4,11.4c-0.3,1.1-0.5,2.2-0.6,3.5
	c-0.7,0.2-1.3,0.8-1.3,1.5c0,0.8,0.6,1.4,1.3,1.5c0.1,1.3,0.3,2.5,0.6,3.5l-9.4,11.4h1l8.7-10.5c0.2,0.5,0.4,1,0.7,1.5l-7.2,9h2.3
	l2.2-2.7h10v-0.8c-0.4-0.1-3.5-1.1-5.8-4.5l3.4-4.2V204l-3.4-4c2.3-3.3,5.4-4.3,5.8-4.5 M713.9,221.5h-7.4l3-3.8
	C710.9,219.6,712.6,220.8,713.9,221.5z M711.5,204.8v7.3l-2.5,3.2c-0.7-1.4-1.2-3.2-1.4-5.3c0.6-0.2,1.1-0.8,1.1-1.5
	s-0.5-1.3-1.1-1.5c0.2-2.1,0.7-3.9,1.4-5.3L711.5,204.8z M709.5,199.3l-3-3.8h7.4C712.6,196.2,710.9,197.4,709.5,199.3z
	 M689.2,195.5c0.4,0.1,3.5,1.1,5.8,4.5l-3.4,4.2v8.6l3.4,4.2c-2.3,3.3-5.4,4.3-5.8,4.5v0.8h10l2.2,2.7h2.3l-7.2-9
	c0.2-0.5,0.5-1,0.7-1.5l8.7,10.5h1l-9.4-11.4c0.3-1.1,0.5-2.2,0.6-3.5c0.7-0.2,1.3-0.8,1.3-1.5c0-0.8-0.6-1.4-1.3-1.5
	c-0.1-1.3-0.3-2.5-0.6-3.5l9.4-11.4h-1l-8.7,10.5c-0.2-0.5-0.4-1-0.7-1.5l7.2-9h-2.3l-2.2,2.7h-10 M695.5,217.7l3,3.8h-7.4
	C692.4,220.8,694.1,219.6,695.5,217.7z M696,201.7c0.7,1.4,1.2,3.2,1.4,5.3c-0.6,0.2-1.1,0.8-1.1,1.5s0.5,1.3,1.1,1.5
	c-0.2,2.1-0.7,3.9-1.4,5.3l-2.5-3.2v-7.3L696,201.7z M691.1,195.5h7.4l-3,3.8C694.1,197.4,692.4,196.2,691.1,195.5z"/>
<path class="st3" d="M715.8,835.1h-10l-2.2-2.7h-2.3l7.2,9c-0.2,0.5-0.5,1-0.7,1.5l-8.7-10.5h-1l9.4,11.4c-0.3,1.1-0.5,2.2-0.6,3.5
	c-0.7,0.2-1.3,0.8-1.3,1.5c0,0.8,0.6,1.4,1.3,1.5c0.1,1.3,0.3,2.5,0.6,3.5l-9.4,11.4h1l8.7-10.5c0.2,0.5,0.4,1,0.7,1.5l-7.2,9h2.3
	l2.2-2.7h10v-0.8c-0.4-0.1-3.5-1.1-5.8-4.5l3.4-4.2v-8.6l-3.4-4.2c2.3-3.3,5.4-4.3,5.8-4.5 M713.9,861.9h-7.4l3-3.8
	C710.9,860,712.6,861.2,713.9,861.9z M711.5,845.2v7.3l-2.5,3.2c-0.7-1.4-1.2-3.2-1.4-5.3c0.6-0.2,1.1-0.8,1.1-1.5s-0.5-1.3-1.1-1.5
	c0.2-2.1,0.7-3.9,1.4-5.3L711.5,845.2z M709.5,839.7l-3-3.8h7.4C712.6,836.6,710.9,837.8,709.5,839.7z M689.2,835.9
	c0.4,0.1,3.5,1.1,5.8,4.5l-3.4,4.2v8.6l3.4,4.2c-2.3,3.3-5.4,4.3-5.8,4.5v0.8h10l2.2,2.7h2.3l-7.2-9c0.2-0.5,0.5-1,0.7-1.5l8.7,10.5
	h1l-9.4-11.4c0.3-1.1,0.5-2.2,0.6-3.5c0.7-0.2,1.3-0.8,1.3-1.5c0-0.8-0.6-1.4-1.3-1.5c-0.1-1.3-0.3-2.5-0.6-3.5l9.4-11.4h-1
	l-8.7,10.5c-0.2-0.5-0.4-1-0.7-1.5l7.2-9h-2.3l-2.2,2.7h-10 M695.5,858l3,3.8h-7.4C692.4,861.2,694.1,860,695.5,858z M696,842.1
	c0.7,1.4,1.2,3.2,1.4,5.3c-0.6,0.2-1.1,0.8-1.1,1.5s0.5,1.3,1.1,1.5c-0.2,2.1-0.7,3.9-1.4,5.3l-2.5-3.2v-7.3L696,842.1z
	 M691.1,835.9h7.4l-3,3.8C694.1,837.8,692.4,836.6,691.1,835.9z"/>
<path class="st3" d="M715.8,647.5h-10l-2.2-2.7h-2.3l7.2,9c-0.2,0.5-0.5,1-0.7,1.5l-8.7-10.5h-1l9.4,11.4c-0.3,1.1-0.5,2.2-0.6,3.5
	c-0.7,0.2-1.3,0.8-1.3,1.5c0,0.8,0.6,1.4,1.3,1.5c0.1,1.3,0.3,2.5,0.6,3.5l-9.4,11.4h1l8.7-10.5c0.2,0.5,0.4,1,0.7,1.5l-7.2,9h2.3
	l2.2-2.7h10v-0.8c-0.4-0.1-3.5-1.1-5.8-4.5l3.4-4.2v-8.6l-3.4-4.2c2.3-3.3,5.4-4.3,5.8-4.5 M713.9,674.2h-7.4l3-3.8
	C710.9,672.4,712.6,673.6,713.9,674.2z M711.5,657.6v7.3l-2.5,3.2c-0.7-1.4-1.2-3.2-1.4-5.3c0.6-0.2,1.1-0.8,1.1-1.5
	s-0.5-1.3-1.1-1.5c0.2-2.1,0.7-3.9,1.4-5.3L711.5,657.6z M709.5,652.1l-3-3.8h7.4C712.6,648.9,710.9,650.1,709.5,652.1z
	 M689.2,648.3c0.4,0.1,3.5,1.1,5.8,4.5l-3.4,4.2v8.6l3.4,4.2c-2.3,3.3-5.4,4.3-5.8,4.5v0.8h10l2.2,2.7h2.3l-7.2-9
	c0.2-0.5,0.5-1,0.7-1.5l8.7,10.5h1l-9.4-11.4c0.3-1.1,0.5-2.2,0.6-3.5c0.7-0.2,1.3-0.8,1.3-1.5c0-0.8-0.6-1.4-1.3-1.5
	c-0.1-1.3-0.3-2.5-0.6-3.5l9.4-11.4h-1l-8.7,10.5c-0.2-0.5-0.4-1-0.7-1.5l7.2-9h-2.3l-2.2,2.7h-10 M695.5,670.4l3,3.8h-7.4
	C692.4,673.6,694.1,672.4,695.5,670.4z M696,654.4c0.7,1.4,1.2,3.2,1.4,5.3c-0.6,0.2-1.1,0.8-1.1,1.5s0.5,1.3,1.1,1.5
	c-0.2,2.1-0.7,3.9-1.4,5.3l-2.5-3.2v-7.3L696,654.4z M691.1,648.3h7.4l-3,3.8C694.1,650.1,692.4,648.9,691.1,648.3z"/>
<path class="st3" d="M715.8,421.1h-10l-2.2-2.7h-2.3l7.2,9c-0.2,0.5-0.5,1-0.7,1.5l-8.7-10.5h-1l9.4,11.4c-0.3,1.1-0.5,2.2-0.6,3.5
	c-0.7,0.2-1.3,0.8-1.3,1.5c0,0.8,0.6,1.4,1.3,1.5c0.1,1.3,0.3,2.5,0.6,3.5l-9.4,11.4h1l8.7-10.5c0.2,0.5,0.4,1,0.7,1.5l-7.2,9h2.3
	l2.2-2.7h10v-0.8c-0.4-0.1-3.5-1.1-5.8-4.5l3.4-4.2v-8.6l-3.4-4.2c2.3-3.3,5.4-4.3,5.8-4.5 M713.9,447.8h-7.4l3-3.8
	C710.9,446,712.6,447.1,713.9,447.8z M711.5,431.2v7.3l-2.5,3.2c-0.7-1.4-1.2-3.2-1.4-5.3c0.6-0.2,1.1-0.8,1.1-1.5s-0.5-1.3-1.1-1.5
	c0.2-2.1,0.7-3.9,1.4-5.3L711.5,431.2z M709.5,425.7l-3-3.8h7.4C712.6,422.5,710.9,423.7,709.5,425.7z M689.2,421.8
	c0.4,0.1,3.5,1.1,5.8,4.5l-3.4,4.2v8.6l3.4,4.2c-2.3,3.3-5.4,4.3-5.8,4.5v0.8h10l2.2,2.7h2.3l-7.2-9c0.2-0.5,0.5-1,0.7-1.5l8.7,10.5
	h1l-9.4-11.4c0.3-1.1,0.5-2.2,0.6-3.5c0.7-0.2,1.3-0.8,1.3-1.5c0-0.8-0.6-1.4-1.3-1.5c-0.1-1.3-0.3-2.5-0.6-3.5l9.4-11.4h-1
	l-8.7,10.5c-0.2-0.5-0.4-1-0.7-1.5l7.2-9h-2.3l-2.2,2.7h-10 M695.5,444l3,3.8h-7.4C692.4,447.1,694.1,446,695.5,444z M696,428
	c0.7,1.4,1.2,3.2,1.4,5.3c-0.6,0.2-1.1,0.8-1.1,1.5s0.5,1.3,1.1,1.5c-0.2,2.1-0.7,3.9-1.4,5.3l-2.5-3.2v-7.3L696,428z M691.1,421.8
	h7.4l-3,3.8C694.1,423.7,692.4,422.5,691.1,421.8z"/>
<path class="st3" d="M466.3,797.6h-10l-2.2-2.7h-2.3l7.2,9c-0.2,0.5-0.5,1-0.7,1.5l-8.7-10.5h-1l9.4,11.4c-0.3,1.1-0.5,2.2-0.6,3.5
	c-0.7,0.2-1.3,0.8-1.3,1.5c0,0.8,0.6,1.4,1.3,1.5c0.1,1.3,0.3,2.5,0.6,3.5l-9.4,11.4h1l8.7-10.5c0.2,0.5,0.4,1,0.7,1.5l-7.2,9h2.3
	l2.2-2.7h10v-0.8c-0.4-0.1-3.5-1.1-5.8-4.5l3.4-4.2v-8.6l-3.4-4.2c2.3-3.3,5.4-4.3,5.8-4.5 M464.4,824.4H457l3-3.8
	C461.4,822.5,463.1,823.7,464.4,824.4z M462,807.7v7.3l-2.5,3.2c-0.7-1.4-1.2-3.2-1.4-5.3c0.6-0.2,1.1-0.8,1.1-1.5s-0.5-1.3-1.1-1.5
	c0.2-2.1,0.7-3.9,1.4-5.3L462,807.7z M460,802.2l-3-3.8h7.4C463.1,799.1,461.4,800.3,460,802.2z M439.7,798.4
	c0.4,0.1,3.5,1.1,5.8,4.5l-3.4,4.2v8.6l3.4,4.2c-2.3,3.3-5.4,4.3-5.8,4.5v0.8h10l2.2,2.7h2.3l-7.2-9c0.2-0.5,0.5-1,0.7-1.5l8.7,10.5
	h1l-9.4-11.4c0.3-1.1,0.5-2.2,0.6-3.5c0.7-0.2,1.3-0.8,1.3-1.5c0-0.8-0.6-1.4-1.3-1.5c-0.1-1.3-0.3-2.5-0.6-3.5l9.4-11.4h-1
	l-8.7,10.5c-0.2-0.5-0.4-1-0.7-1.5l7.2-9h-2.3l-2.2,2.7h-10 M446,820.5l3,3.8h-7.4C442.9,823.7,444.6,822.5,446,820.5z M446.5,804.6
	c0.7,1.4,1.2,3.2,1.4,5.3c-0.6,0.2-1.1,0.8-1.1,1.5s0.5,1.3,1.1,1.5c-0.2,2.1-0.7,3.9-1.4,5.3L444,815v-7.3L446.5,804.6z
	 M441.6,798.4h7.4l-3,3.8C444.6,800.3,442.9,799.1,441.6,798.4z"/>
<path class="st3" d="M466.3,495.5h-10l-2.2-2.7h-2.3l7.2,9c-0.2,0.5-0.5,1-0.7,1.5l-8.7-10.5h-1l9.4,11.4c-0.3,1.1-0.5,2.2-0.6,3.5
	c-0.7,0.2-1.3,0.8-1.3,1.5c0,0.8,0.6,1.4,1.3,1.5c0.1,1.3,0.3,2.5,0.6,3.5l-9.4,11.4h1l8.7-10.5c0.2,0.5,0.4,1,0.7,1.5l-7.2,9h2.3
	l2.2-2.7h10v-0.8c-0.4-0.1-3.5-1.1-5.8-4.5l3.4-4.2V505l-3.4-4.2c2.3-3.3,5.4-4.3,5.8-4.5 M464.4,522.3H457l3-3.8
	C461.4,520.4,463.1,521.6,464.4,522.3z M462,505.6v7.3l-2.5,3.2c-0.7-1.4-1.2-3.2-1.4-5.3c0.6-0.2,1.1-0.8,1.1-1.5s-0.5-1.3-1.1-1.5
	c0.2-2.1,0.7-3.9,1.4-5.3L462,505.6z M460,500.1l-3-3.8h7.4C463.1,497,461.4,498.2,460,500.1z M439.7,496.3c0.4,0.1,3.5,1.1,5.8,4.5
	l-3.4,4.2v8.6l3.4,4.2c-2.3,3.3-5.4,4.3-5.8,4.5v0.8h10l2.2,2.7h2.3l-7.2-9c0.2-0.5,0.5-1,0.7-1.5l8.7,10.5h1l-9.4-11.4
	c0.3-1.1,0.5-2.2,0.6-3.5c0.7-0.2,1.3-0.8,1.3-1.5c0-0.8-0.6-1.4-1.3-1.5c-0.1-1.3-0.3-2.5-0.6-3.5l9.4-11.4h-1l-8.7,10.5
	c-0.2-0.5-0.4-1-0.7-1.5l7.2-9h-2.3l-2.2,2.7h-10 M446,518.4l3,3.8h-7.4C442.9,521.6,444.6,520.4,446,518.4z M446.5,502.5
	c0.7,1.4,1.2,3.2,1.4,5.3c-0.6,0.2-1.1,0.8-1.1,1.5s0.5,1.3,1.1,1.5c-0.2,2.1-0.7,3.9-1.4,5.3l-2.5-3.2v-7.3L446.5,502.5z
	 M441.6,496.3h7.4l-3,3.8C444.6,498.2,442.9,497,441.6,496.3z"/>
<path class="st3" d="M466.3,194.7h-10l-2.2-2.7h-2.3l7.2,9c-0.2,0.5-0.5,1-0.7,1.5l-8.7-10.5h-1l9.4,11.4c-0.3,1.1-0.5,2.2-0.6,3.5
	c-0.7,0.2-1.3,0.8-1.3,1.5c0,0.8,0.6,1.4,1.3,1.5c0.1,1.3,0.3,2.5,0.6,3.5l-9.4,11.4h1l8.7-10.5c0.2,0.5,0.4,1,0.7,1.5l-7.2,9h2.3
	l2.2-2.7h10v-0.8c-0.4-0.1-3.5-1.1-5.8-4.5l3.4-4.2V204l-3.4-4.2c2.3-3.3,5.4-4.3,5.8-4.5 M464.4,221.5H457l3-3.8
	C461.4,219.6,463.1,220.8,464.4,221.5z M462,204.8v7.3l-2.5,3.2c-0.7-1.4-1.2-3.2-1.4-5.3c0.6-0.2,1.1-0.8,1.1-1.5s-0.5-1.3-1.1-1.5
	c0.2-2.1,0.7-3.9,1.4-5.3L462,204.8z M460,199.3l-3-3.8h7.4C463.1,196.2,461.4,197.4,460,199.3z M439.7,195.5
	c0.4,0.1,3.5,1.1,5.8,4.5l-3.4,4.2v8.6l3.4,4.2c-2.3,3.3-5.4,4.3-5.8,4.5v0.8h10l2.2,2.7h2.3l-7.2-9c0.2-0.5,0.5-1,0.7-1.5l8.7,10.5
	h1l-9.4-11.4c0.3-1.1,0.5-2.2,0.6-3.5c0.7-0.2,1.3-0.8,1.3-1.5c0-0.8-0.6-1.4-1.3-1.5c-0.1-1.3-0.3-2.5-0.6-3.5l9.4-11.4h-1
	l-8.7,10.5c-0.2-0.5-0.4-1-0.7-1.5l7.2-9h-2.3l-2.2,2.7h-10 M446,217.7l3,3.8h-7.4C442.9,220.8,444.6,219.6,446,217.7z M446.5,201.7
	c0.7,1.4,1.2,3.2,1.4,5.3c-0.6,0.2-1.1,0.8-1.1,1.5s0.5,1.3,1.1,1.5c-0.2,2.1-0.7,3.9-1.4,5.3l-2.5-3.2v-7.3L446.5,201.7z
	 M441.6,195.5h7.4l-3,3.8C444.6,197.4,442.9,196.2,441.6,195.5z"/>
<path class="st3" d="M214.7,723.1h-10l-2.2-2.7h-2.3l7.2,9c-0.2,0.5-0.5,1-0.7,1.5l-8.7-10.5h-1l9.4,11.4c-0.3,1.1-0.5,2.2-0.6,3.5
	c-0.7,0.2-1.3,0.8-1.3,1.5c0,0.8,0.6,1.4,1.3,1.5c0.1,1.3,0.3,2.5,0.6,3.5l-9.4,11.4h1l8.7-10.5c0.2,0.5,0.4,1,0.7,1.5l-7.2,9h2.3
	l2.2-2.7h10v-0.8c-0.4-0.1-3.5-1.1-5.8-4.5l3.4-4.2v-8.6l-3.4-4.2c2.3-3.3,5.4-4.3,5.8-4.5 M212.8,749.9h-7.4l3-3.8
	C209.8,748,211.5,749.2,212.8,749.9z M210.4,733.2v7.3l-2.5,3.2c-0.7-1.4-1.2-3.2-1.4-5.3c0.6-0.2,1.1-0.8,1.1-1.5s-0.5-1.3-1.1-1.5
	c0.2-2.1,0.7-3.9,1.4-5.3L210.4,733.2z M208.4,727.7l-3-3.8h7.4C211.5,724.6,209.8,725.8,208.4,727.7z M188.1,723.9
	c0.4,0.1,3.5,1.1,5.8,4.5l-3.4,4.2v8.6l3.4,4.2c-2.3,3.3-5.4,4.3-5.8,4.5v0.8h10l2.2,2.7h2.3l-7.2-9c0.2-0.5,0.5-1,0.7-1.5l8.7,10.5
	h1l-9.4-11.4c0.3-1.1,0.5-2.2,0.6-3.5c0.7-0.2,1.3-0.8,1.3-1.5c0-0.8-0.6-1.4-1.3-1.5c-0.1-1.3-0.3-2.5-0.6-3.5l9.4-11.4h-1
	l-8.7,10.5c-0.2-0.5-0.4-1-0.7-1.5l7.2-9h-2.3l-2.2,2.7h-10 M194.4,746.1l3,3.8H190C191.3,749.2,192.9,748,194.4,746.1z
	 M194.9,730.1c0.7,1.4,1.2,3.2,1.4,5.3c-0.6,0.2-1.1,0.8-1.1,1.5s0.5,1.3,1.1,1.5c-0.2,2.1-0.7,3.9-1.4,5.3l-2.5-3.2v-7.3
	L194.9,730.1z M190,723.9h7.4l-3,3.8C192.9,725.8,191.3,724.6,190,723.9z"/>
<path class="st3" d="M214.3,418.4h-10l-2.2-2.7h-2.3l7.2,9c-0.2,0.5-0.5,1-0.7,1.5l-8.7-10.5h-1l9.4,11.4c-0.3,1.1-0.5,2.2-0.6,3.5
	c-0.7,0.2-1.3,0.8-1.3,1.5c0,0.8,0.6,1.4,1.3,1.5c0.1,1.3,0.3,2.5,0.6,3.5l-9.4,11.4h1l8.7-10.5c0.2,0.5,0.4,1,0.7,1.5l-7.2,9h2.3
	l2.2-2.7h10V445c-0.4-0.1-3.5-1.1-5.8-4.5l3.4-4.2v-8.6l-3.4-4.2c2.3-3.3,5.4-4.3,5.8-4.5 M212.4,445.1H205l3-3.8
	C209.4,443.3,211.1,444.5,212.4,445.1z M210,428.5v7.3l-2.5,3.2c-0.7-1.4-1.2-3.2-1.4-5.3c0.6-0.2,1.1-0.8,1.1-1.5s-0.5-1.3-1.1-1.5
	c0.2-2.1,0.7-3.9,1.4-5.3L210,428.5z M208,423l-3-3.8h7.4C211.1,419.8,209.4,421,208,423z M187.7,419.2c0.4,0.1,3.5,1.1,5.8,4.5
	l-3.4,4.2v8.6l3.4,4.2c-2.3,3.3-5.4,4.3-5.8,4.5v0.8h10l2.2,2.7h2.3l-7.2-9c0.2-0.5,0.5-1,0.7-1.5l8.7,10.5h1l-9.4-11.4
	c0.3-1.1,0.5-2.2,0.6-3.5c0.7-0.2,1.3-0.8,1.3-1.5c0-0.8-0.6-1.4-1.3-1.5c-0.1-1.3-0.3-2.5-0.6-3.5l9.4-11.4h-1l-8.7,10.5
	c-0.2-0.5-0.4-1-0.7-1.5l7.2-9h-2.3l-2.2,2.7h-10 M194,441.3l3,3.8h-7.4C190.9,444.5,192.6,443.3,194,441.3z M194.5,425.3
	c0.7,1.4,1.2,3.2,1.4,5.3c-0.6,0.2-1.1,0.8-1.1,1.5s0.5,1.3,1.1,1.5c-0.2,2.1-0.7,3.9-1.4,5.3l-2.5-3.2v-7.3L194.5,425.3z
	 M189.6,419.2h7.4l-3,3.8C192.6,421,190.9,419.8,189.6,419.2z"/>
<text transform="matrix(-3.977812e-02 -0.9992 0.9992 -3.977812e-02 40.5636 471.593)" class="st4 st1 st5">P</text>
<text transform="matrix(0.4401 -0.898 0.898 0.4401 40.4078 468.7155)" class="st4 st1 st6">R</text>
<text transform="matrix(0.7559 -0.6547 0.6547 0.7559 41.709 465.9763)" class="st4 st1 st7">E</text>
<text transform="matrix(0.947 -0.3212 0.3212 0.947 43.7905 464.1856)" class="st4 st1 st7">P</text>
<text transform="matrix(0.988 0.1547 -0.1547 0.988 46.3547 463.2219)" class="st4 st1 st8">A</text>
<text transform="matrix(0.8491 0.5283 -0.5283 0.8491 49.3929 463.6599)" class="st4 st1 st8">R</text>
<text transform="matrix(0.5776 0.8163 -0.8163 0.5776 51.8949 465.325)" class="st4 st1 st9">E</text>
<text transform="matrix(3.977812e-02 0.9992 -0.9992 3.977812e-02 53.6502 467.6044)" class="st4 st1 st5">D</text>
<rect x="79.9" y="412.1" class="st10" width="26.8" height="10.9"/>
<rect x="152.8" y="412.1" class="st10" width="21.8" height="10.9"/>
<rect x="218.7" y="412.1" class="st10" width="36.5" height="10.9"/>
</svg>
