<?xml version="1.0" encoding="utf-8"?>
<!-- Generator: Adobe Illustrator 26.0.3, SVG Export Plug-In . SVG Version: 6.00 Build 0)  -->
<svg version="1.1"
	 id="svg2" xmlns:cc="http://creativecommons.org/ns#" xmlns:dc="http://purl.org/dc/elements/1.1/" xmlns:rdf="http://www.w3.org/1999/02/22-rdf-syntax-ns#" xmlns:svg="http://www.w3.org/2000/svg"
	 xmlns="http://www.w3.org/2000/svg" xmlns:xlink="http://www.w3.org/1999/xlink" x="0px" y="0px" viewBox="0 0 816 1056"
	 style="enable-background:new 0 0 816 1056;" xml:space="preserve">
<path d="M715.8,194.7h-10l-2.2-2.7h-2.3l7.2,9c-0.2,0.5-0.5,1-0.7,1.5l-8.7-10.5h-1l9.4,11.4c-0.3,1.1-0.5,2.2-0.6,3.5
	c-0.7,0.2-1.3,0.8-1.3,1.5c0,0.8,0.6,1.4,1.3,1.5c0.1,1.3,0.3,2.5,0.6,3.5l-9.4,11.4h1l8.7-10.5c0.2,0.5,0.4,1,0.7,1.5l-7.2,9h2.3
	l2.2-2.7h10v-0.8c-0.4-0.1-3.5-1.1-5.8-4.5l3.4-4.2v-8.6L710,200c2.3-3.3,5.4-4.3,5.8-4.5 M715.8,221.5 M713.9,221.5h-7.4l3-3.8
	C710.9,219.6,712.6,220.8,713.9,221.5z M711.5,204.8v7.3l-2.5,3.2c-0.7-1.4-1.2-3.2-1.4-5.3c0.6-0.2,1.1-0.8,1.1-1.5
	c0-0.7-0.5-1.3-1.1-1.5c0.2-2.1,0.7-3.9,1.4-5.3L711.5,204.8z M709.5,199.3l-3-3.8h7.4C712.6,196.2,710.9,197.4,709.5,199.3z
	 M689.2,195.5c0.4,0.1,3.5,1.1,5.8,4.5l-3.4,4.2v8.6l3.4,4.2c-2.3,3.3-5.4,4.3-5.8,4.5v0.8h10l2.2,2.7h2.3l-7.2-9
	c0.2-0.5,0.5-1,0.7-1.5l8.7,10.5h1l-9.4-11.4c0.3-1.1,0.5-2.2,0.6-3.5c0.7-0.2,1.3-0.8,1.3-1.5c0-0.8-0.6-1.4-1.3-1.5
	c-0.1-1.3-0.3-2.5-0.6-3.5l9.4-11.4h-1l-8.7,10.5c-0.2-0.5-0.4-1-0.7-1.5l7.2-9h-2.3l-2.2,2.7h-10 M689.2,221.5 M695.5,217.7l3,3.8
	h-7.4C692.4,220.8,694.1,219.6,695.5,217.7z M696,201.7c0.7,1.4,1.2,3.2,1.4,5.3c-0.6,0.2-1.1,0.8-1.1,1.5c0,0.7,0.5,1.3,1.1,1.5
	c-0.2,2.1-0.7,3.9-1.4,5.3l-2.5-3.2v-7.3L696,201.7z M691.1,195.5h7.4l-3,3.8C694.1,197.4,692.4,196.2,691.1,195.5z"/>
<path d="M715.8,835.1h-10l-2.2-2.7h-2.3l7.2,9c-0.2,0.5-0.5,1-0.7,1.5l-8.7-10.5h-1l9.4,11.4c-0.3,1.1-0.5,2.2-0.6,3.5
	c-0.7,0.2-1.3,0.8-1.3,1.5c0,0.8,0.6,1.4,1.3,1.5c0.1,1.3,0.3,2.5,0.6,3.5l-9.4,11.4h1l8.7-10.5c0.2,0.5,0.4,1,0.7,1.5l-7.2,9h2.3
	l2.2-2.7h10v-0.8c-0.4-0.1-3.5-1.1-5.8-4.5l3.4-4.2v-8.6l-3.4-4.2c2.3-3.3,5.4-4.3,5.8-4.5 M715.8,861.9 M713.9,861.9h-7.4l3-3.8
	C710.9,860,712.6,861.2,713.9,861.9z M711.5,845.2v7.3l-2.5,3.2c-0.7-1.4-1.2-3.2-1.4-5.3c0.6-0.2,1.1-0.8,1.1-1.5
	c0-0.7-0.5-1.3-1.1-1.5c0.2-2.1,0.7-3.9,1.4-5.3L711.5,845.2z M709.5,839.7l-3-3.8h7.4C712.6,836.6,710.9,837.8,709.5,839.7z
	 M689.2,835.9c0.4,0.1,3.5,1.1,5.8,4.5l-3.4,4.2v8.6l3.4,4.2c-2.3,3.3-5.4,4.3-5.8,4.5v0.8h10l2.2,2.7h2.3l-7.2-9
	c0.2-0.5,0.5-1,0.7-1.5l8.7,10.5h1l-9.4-11.4c0.3-1.1,0.5-2.2,0.6-3.5c0.7-0.2,1.3-0.8,1.3-1.5c0-0.8-0.6-1.4-1.3-1.5
	c-0.1-1.3-0.3-2.5-0.6-3.5l9.4-11.4h-1l-8.7,10.5c-0.2-0.5-0.4-1-0.7-1.5l7.2-9h-2.3l-2.2,2.7h-10 M689.2,861.9 M695.5,858l3,3.8
	h-7.4C692.4,861.2,694.1,860,695.5,858z M696,842.1c0.7,1.4,1.2,3.2,1.4,5.3c-0.6,0.2-1.1,0.8-1.1,1.5c0,0.7,0.5,1.3,1.1,1.5
	c-0.2,2.1-0.7,3.9-1.4,5.3l-2.5-3.2v-7.3L696,842.1z M691.1,835.9h7.4l-3,3.8C694.1,837.8,692.4,836.6,691.1,835.9z"/>
<path d="M715.8,647.5h-10l-2.2-2.7h-2.3l7.2,9c-0.2,0.5-0.5,1-0.7,1.5l-8.7-10.5h-1l9.4,11.4c-0.3,1.1-0.5,2.2-0.6,3.5
	c-0.7,0.2-1.3,0.8-1.3,1.5c0,0.8,0.6,1.4,1.3,1.5c0.1,1.3,0.3,2.5,0.6,3.5l-9.4,11.4h1l8.7-10.5c0.2,0.5,0.4,1,0.7,1.5l-7.2,9h2.3
	l2.2-2.7h10v-0.8c-0.4-0.1-3.5-1.1-5.8-4.5l3.4-4.2v-8.6l-3.4-4.2c2.3-3.3,5.4-4.3,5.8-4.5 M715.8,674.2 M713.9,674.2h-7.4l3-3.8
	C710.9,672.4,712.6,673.6,713.9,674.2z M711.5,657.6v7.3l-2.5,3.2c-0.7-1.4-1.2-3.2-1.4-5.3c0.6-0.2,1.1-0.8,1.1-1.5
	c0-0.7-0.5-1.3-1.1-1.5c0.2-2.1,0.7-3.9,1.4-5.3L711.5,657.6z M709.5,652.1l-3-3.8h7.4C712.6,648.9,710.9,650.1,709.5,652.1z
	 M689.2,648.3c0.4,0.1,3.5,1.1,5.8,4.5l-3.4,4.2v8.6l3.4,4.2c-2.3,3.3-5.4,4.3-5.8,4.5v0.8h10l2.2,2.7h2.3l-7.2-9
	c0.2-0.5,0.5-1,0.7-1.5l8.7,10.5h1l-9.4-11.4c0.3-1.1,0.5-2.2,0.6-3.5c0.7-0.2,1.3-0.8,1.3-1.5c0-0.8-0.6-1.4-1.3-1.5
	c-0.1-1.3-0.3-2.5-0.6-3.5l9.4-11.4h-1l-8.7,10.5c-0.2-0.5-0.4-1-0.7-1.5l7.2-9h-2.3l-2.2,2.7h-10 M689.2,674.2 M695.5,670.4l3,3.8
	h-7.4C692.4,673.6,694.1,672.4,695.5,670.4z M696,654.4c0.7,1.4,1.2,3.2,1.4,5.3c-0.6,0.2-1.1,0.8-1.1,1.5c0,0.7,0.5,1.3,1.1,1.5
	c-0.2,2.1-0.7,3.9-1.4,5.3l-2.5-3.2v-7.3L696,654.4z M691.1,648.3h7.4l-3,3.8C694.1,650.1,692.4,648.9,691.1,648.3z"/>
<path d="M715.8,421.1h-10l-2.2-2.7h-2.3l7.2,9c-0.2,0.5-0.5,1-0.7,1.5l-8.7-10.5h-1l9.4,11.4c-0.3,1.1-0.5,2.2-0.6,3.5
	c-0.7,0.2-1.3,0.8-1.3,1.5c0,0.8,0.6,1.4,1.3,1.5c0.1,1.3,0.3,2.5,0.6,3.5l-9.4,11.4h1l8.7-10.5c0.2,0.5,0.4,1,0.7,1.5l-7.2,9h2.3
	l2.2-2.7h10v-0.8c-0.4-0.1-3.5-1.1-5.8-4.5l3.4-4.2v-8.6l-3.4-4.2c2.3-3.3,5.4-4.3,5.8-4.5 M715.8,447.8 M713.9,447.8h-7.4l3-3.8
	C710.9,446,712.6,447.1,713.9,447.8z M711.5,431.2v7.3l-2.5,3.2c-0.7-1.4-1.2-3.2-1.4-5.3c0.6-0.2,1.1-0.8,1.1-1.5
	c0-0.7-0.5-1.3-1.1-1.5c0.2-2.1,0.7-3.9,1.4-5.3L711.5,431.2z M709.5,425.7l-3-3.8h7.4C712.6,422.5,710.9,423.7,709.5,425.7z
	 M689.2,421.8c0.4,0.1,3.5,1.1,5.8,4.5l-3.4,4.2v8.6l3.4,4.2c-2.3,3.3-5.4,4.3-5.8,4.5v0.8h10l2.2,2.7h2.3l-7.2-9
	c0.2-0.5,0.5-1,0.7-1.5l8.7,10.5h1l-9.4-11.4c0.3-1.1,0.5-2.2,0.6-3.5c0.7-0.2,1.3-0.8,1.3-1.5c0-0.8-0.6-1.4-1.3-1.5
	c-0.1-1.3-0.3-2.5-0.6-3.5l9.4-11.4h-1l-8.7,10.5c-0.2-0.5-0.4-1-0.7-1.5l7.2-9h-2.3l-2.2,2.7h-10 M689.2,447.8 M695.5,444l3,3.8
	h-7.4C692.4,447.1,694.1,446,695.5,444z M696,428c0.7,1.4,1.2,3.2,1.4,5.3c-0.6,0.2-1.1,0.8-1.1,1.5c0,0.7,0.5,1.3,1.1,1.5
	c-0.2,2.1-0.7,3.9-1.4,5.3l-2.5-3.2v-7.3L696,428z M691.1,421.8h7.4l-3,3.8C694.1,423.7,692.4,422.5,691.1,421.8z"/>
<path d="M466.3,797.6h-10l-2.2-2.7h-2.3l7.2,9c-0.2,0.5-0.5,1-0.7,1.5l-8.7-10.5h-1l9.4,11.4c-0.3,1.1-0.5,2.2-0.6,3.5
	c-0.7,0.2-1.3,0.8-1.3,1.5c0,0.8,0.6,1.4,1.3,1.5c0.1,1.3,0.3,2.5,0.6,3.5l-9.4,11.4h1l8.7-10.5c0.2,0.5,0.4,1,0.7,1.5l-7.2,9h2.3
	l2.2-2.7h10v-0.8c-0.4-0.1-3.5-1.1-5.8-4.5l3.4-4.2v-8.6l-3.4-4.2c2.3-3.3,5.4-4.3,5.8-4.5 M466.3,824.4 M464.4,824.4H457l3-3.8
	C461.4,822.5,463.1,823.7,464.4,824.4z M462,807.7v7.3l-2.5,3.2c-0.7-1.4-1.2-3.2-1.4-5.3c0.6-0.2,1.1-0.8,1.1-1.5
	c0-0.7-0.5-1.3-1.1-1.5c0.2-2.1,0.7-3.9,1.4-5.3L462,807.7z M460,802.2l-3-3.8h7.4C463.1,799.1,461.4,800.3,460,802.2z M439.7,798.4
	c0.4,0.1,3.5,1.1,5.8,4.5l-3.4,4.2v8.6l3.4,4.2c-2.3,3.3-5.4,4.3-5.8,4.5v0.8h10l2.2,2.7h2.3l-7.2-9c0.2-0.5,0.5-1,0.7-1.5l8.7,10.5
	h1l-9.4-11.4c0.3-1.1,0.5-2.2,0.6-3.5c0.7-0.2,1.3-0.8,1.3-1.5c0-0.8-0.6-1.4-1.3-1.5c-0.1-1.3-0.3-2.5-0.6-3.5l9.4-11.4h-1
	l-8.7,10.5c-0.2-0.5-0.4-1-0.7-1.5l7.2-9h-2.3l-2.2,2.7h-10 M439.7,824.4 M446,820.5l3,3.8h-7.4C442.9,823.7,444.6,822.5,446,820.5z
	 M446.5,804.6c0.7,1.4,1.2,3.2,1.4,5.3c-0.6,0.2-1.1,0.8-1.1,1.5c0,0.7,0.5,1.3,1.1,1.5c-0.2,2.1-0.7,3.9-1.4,5.3l-2.5-3.2v-7.3
	L446.5,804.6z M441.6,798.4h7.4l-3,3.8C444.6,800.3,442.9,799.1,441.6,798.4z"/>
<path d="M466.3,495.5h-10l-2.2-2.7h-2.3l7.2,9c-0.2,0.5-0.5,1-0.7,1.5l-8.7-10.5h-1l9.4,11.4c-0.3,1.1-0.5,2.2-0.6,3.5
	c-0.7,0.2-1.3,0.8-1.3,1.5c0,0.8,0.6,1.4,1.3,1.5c0.1,1.3,0.3,2.5,0.6,3.5l-9.4,11.4h1l8.7-10.5c0.2,0.5,0.4,1,0.7,1.5l-7.2,9h2.3
	l2.2-2.7h10v-0.8c-0.4-0.1-3.5-1.1-5.8-4.5l3.4-4.2V505l-3.4-4.2c2.3-3.3,5.4-4.3,5.8-4.5 M466.3,522.3 M464.4,522.3H457l3-3.8
	C461.4,520.4,463.1,521.6,464.4,522.3z M462,505.6v7.3l-2.5,3.2c-0.7-1.4-1.2-3.2-1.4-5.3c0.6-0.2,1.1-0.8,1.1-1.5
	c0-0.7-0.5-1.3-1.1-1.5c0.2-2.1,0.7-3.9,1.4-5.3L462,505.6z M460,500.1l-3-3.8h7.4C463.1,497,461.4,498.2,460,500.1z M439.7,496.3
	c0.4,0.1,3.5,1.1,5.8,4.5l-3.4,4.2v8.6l3.4,4.2c-2.3,3.3-5.4,4.3-5.8,4.5v0.8h10l2.2,2.7h2.3l-7.2-9c0.2-0.5,0.5-1,0.7-1.5l8.7,10.5
	h1l-9.4-11.4c0.3-1.1,0.5-2.2,0.6-3.5c0.7-0.2,1.3-0.8,1.3-1.5c0-0.8-0.6-1.4-1.3-1.5c-0.1-1.3-0.3-2.5-0.6-3.5l9.4-11.4h-1
	l-8.7,10.5c-0.2-0.5-0.4-1-0.7-1.5l7.2-9h-2.3l-2.2,2.7h-10 M439.7,522.3 M446,518.4l3,3.8h-7.4C442.9,521.6,444.6,520.4,446,518.4z
	 M446.5,502.5c0.7,1.4,1.2,3.2,1.4,5.3c-0.6,0.2-1.1,0.8-1.1,1.5c0,0.7,0.5,1.3,1.1,1.5c-0.2,2.1-0.7,3.9-1.4,5.3l-2.5-3.2v-7.3
	L446.5,502.5z M441.6,496.3h7.4l-3,3.8C444.6,498.2,442.9,497,441.6,496.3z"/>
<path d="M466.3,194.7h-10l-2.2-2.7h-2.3l7.2,9c-0.2,0.5-0.5,1-0.7,1.5l-8.7-10.5h-1l9.4,11.4c-0.3,1.1-0.5,2.2-0.6,3.5
	c-0.7,0.2-1.3,0.8-1.3,1.5c0,0.8,0.6,1.4,1.3,1.5c0.1,1.3,0.3,2.5,0.6,3.5l-9.4,11.4h1l8.7-10.5c0.2,0.5,0.4,1,0.7,1.5l-7.2,9h2.3
	l2.2-2.7h10v-0.8c-0.4-0.1-3.5-1.1-5.8-4.5l3.4-4.2v-8.6l-3.4-4.2c2.3-3.3,5.4-4.3,5.8-4.5 M466.3,221.5 M464.4,221.5H457l3-3.8
	C461.4,219.6,463.1,220.8,464.4,221.5z M462,204.8v7.3l-2.5,3.2c-0.7-1.4-1.2-3.2-1.4-5.3c0.6-0.2,1.1-0.8,1.1-1.5
	c0-0.7-0.5-1.3-1.1-1.5c0.2-2.1,0.7-3.9,1.4-5.3L462,204.8z M460,199.3l-3-3.8h7.4C463.1,196.2,461.4,197.4,460,199.3z M439.7,195.5
	c0.4,0.1,3.5,1.1,5.8,4.5l-3.4,4.2v8.6l3.4,4.2c-2.3,3.3-5.4,4.3-5.8,4.5v0.8h10l2.2,2.7h2.3l-7.2-9c0.2-0.5,0.5-1,0.7-1.5l8.7,10.5
	h1l-9.4-11.4c0.3-1.1,0.5-2.2,0.6-3.5c0.7-0.2,1.3-0.8,1.3-1.5c0-0.8-0.6-1.4-1.3-1.5c-0.1-1.3-0.3-2.5-0.6-3.5l9.4-11.4h-1
	l-8.7,10.5c-0.2-0.5-0.4-1-0.7-1.5l7.2-9h-2.3l-2.2,2.7h-10 M439.7,221.5 M446,217.7l3,3.8h-7.4C442.9,220.8,444.6,219.6,446,217.7z
	 M446.5,201.7c0.7,1.4,1.2,3.2,1.4,5.3c-0.6,0.2-1.1,0.8-1.1,1.5c0,0.7,0.5,1.3,1.1,1.5c-0.2,2.1-0.7,3.9-1.4,5.3l-2.5-3.2v-7.3
	L446.5,201.7z M441.6,195.5h7.4l-3,3.8C444.6,197.4,442.9,196.2,441.6,195.5z"/>
<path d="M214.7,723.1h-10l-2.2-2.7h-2.3l7.2,9c-0.2,0.5-0.5,1-0.7,1.5l-8.7-10.5h-1l9.4,11.4c-0.3,1.1-0.5,2.2-0.6,3.5
	c-0.7,0.2-1.3,0.8-1.3,1.5c0,0.8,0.6,1.4,1.3,1.5c0.1,1.3,0.3,2.5,0.6,3.5l-9.4,11.4h1l8.7-10.5c0.2,0.5,0.4,1,0.7,1.5l-7.2,9h2.3
	l2.2-2.7h10v-0.8c-0.4-0.1-3.5-1.1-5.8-4.5l3.4-4.2v-8.6l-3.4-4.2c2.3-3.3,5.4-4.3,5.8-4.5 M214.7,749.9 M212.8,749.9h-7.4l3-3.8
	C209.8,748,211.5,749.2,212.8,749.9z M210.4,733.2v7.3l-2.5,3.2c-0.7-1.4-1.2-3.2-1.4-5.3c0.6-0.2,1.1-0.8,1.1-1.5
	c0-0.7-0.5-1.3-1.1-1.5c0.2-2.1,0.7-3.9,1.4-5.3L210.4,733.2z M208.4,727.7l-3-3.8h7.4C211.5,724.6,209.8,725.8,208.4,727.7z
	 M188.1,723.9c0.4,0.1,3.5,1.1,5.8,4.5l-3.4,4.2v8.6l3.4,4.2c-2.3,3.3-5.4,4.3-5.8,4.5v0.8h10l2.2,2.7h2.3l-7.2-9
	c0.2-0.5,0.5-1,0.7-1.5l8.7,10.5h1l-9.4-11.4c0.3-1.1,0.5-2.2,0.6-3.5c0.7-0.2,1.3-0.8,1.3-1.5c0-0.8-0.6-1.4-1.3-1.5
	c-0.1-1.3-0.3-2.5-0.6-3.5l9.4-11.4h-1l-8.7,10.5c-0.2-0.5-0.4-1-0.7-1.5l7.2-9h-2.3l-2.2,2.7h-10 M188.1,749.9 M194.4,746.1l3,3.8
	H190C191.3,749.2,192.9,748,194.4,746.1z M194.9,730.1c0.7,1.4,1.2,3.2,1.4,5.3c-0.6,0.2-1.1,0.8-1.1,1.5c0,0.7,0.5,1.3,1.1,1.5
	c-0.2,2.1-0.7,3.9-1.4,5.3l-2.5-3.2v-7.3L194.9,730.1z M190,723.9h7.4l-3,3.8C192.9,725.8,191.3,724.6,190,723.9z"/>
<path d="M214.3,418.4h-10l-2.2-2.7h-2.3l7.2,9c-0.2,0.5-0.5,1-0.7,1.5l-8.7-10.5h-1l9.4,11.4c-0.3,1.1-0.5,2.2-0.6,3.5
	c-0.7,0.2-1.3,0.8-1.3,1.5c0,0.8,0.6,1.4,1.3,1.5c0.1,1.3,0.3,2.5,0.6,3.5l-9.4,11.4h1l8.7-10.5c0.2,0.5,0.4,1,0.7,1.5l-7.2,9h2.3
	l2.2-2.7h10v-0.8c-0.4-0.1-3.5-1.1-5.8-4.5l3.4-4.2v-8.6l-3.4-4.2c2.3-3.3,5.4-4.3,5.8-4.5 M214.3,445.1 M212.4,445.1H205l3-3.8
	C209.4,443.3,211.1,444.5,212.4,445.1z M210,428.5v7.3l-2.5,3.2c-0.7-1.4-1.2-3.2-1.4-5.3c0.6-0.2,1.1-0.8,1.1-1.5
	c0-0.7-0.5-1.3-1.1-1.5c0.2-2.1,0.7-3.9,1.4-5.3L210,428.5z M208,423l-3-3.8h7.4C211.1,419.8,209.4,421,208,423z M187.7,419.2
	c0.4,0.1,3.5,1.1,5.8,4.5l-3.4,4.2v8.6l3.4,4.2c-2.3,3.3-5.4,4.3-5.8,4.5v0.8h10l2.2,2.7h2.3l-7.2-9c0.2-0.5,0.5-1,0.7-1.5l8.7,10.5
	h1l-9.4-11.4c0.3-1.1,0.5-2.2,0.6-3.5c0.7-0.2,1.3-0.8,1.3-1.5c0-0.8-0.6-1.4-1.3-1.5c-0.1-1.3-0.3-2.5-0.6-3.5l9.4-11.4h-1
	l-8.7,10.5c-0.2-0.5-0.4-1-0.7-1.5l7.2-9h-2.3l-2.2,2.7h-10 M187.7,445.1 M194,441.3l3,3.8h-7.4C190.9,444.5,192.6,443.3,194,441.3z
	 M194.5,425.3c0.7,1.4,1.2,3.2,1.4,5.3c-0.6,0.2-1.1,0.8-1.1,1.5c0,0.7,0.5,1.3,1.1,1.5c-0.2,2.1-0.7,3.9-1.4,5.3l-2.5-3.2v-7.3
	L194.5,425.3z M189.6,419.2h7.4l-3,3.8C192.6,421,190.9,419.8,189.6,419.2z"/>
</svg>
